<?xml version="1.0" encoding="UTF-8" standalone="no"?>
<svg xmlns="http://www.w3.org/2000/svg" width="512" height="512" viewBox="0 0 512 512">
	<mask id="gap" x="0" y="0" width="512" height="512">
		<circle cx="256" cy="192" r="128" fill="white"/>
		<rect width="16" height="128" x="192" y="192" fill="black"/>
		<circle cx="256" cy="192" r="64" fill="black"/>
	</mask>
	<g>
		<circle cx="256" cy="192" r="128" fill="#0085ba" style="mask: url(#gap)"/>
		<rect width="64" height="256" x="128" y="192" fill="#0085ba"/>
		<circle cx="256" cy="192" r="64" fill="white" style="mask: url(#gap)"/>
	</g>

	<g transform="translate(140, 69) scale(0.24)">
		<path transform="matrix(1.1729 0 0 1.2563 -24.496 40.647)" d="m646.5 374.72a213.14 199 0 1 1 -426.28 0 213.14 199 0 1 1 426.28 0z" fill="none" stroke="#c33" stroke-width="14.828"/>
		<path d="m483.8 281.4c-78.221 0-147.32 39.052-188.88 98.719l68.844 119.28 125.84-217.94c-1.9315-0.0479-3.8695-0.0625-5.8125-0.0625zm19.25 0.8125-68.875 119.28h251.69c-36.093-66.22-103.78-112.73-182.81-119.28zm-215.5 109.16c-21.422 34.943-33.75 76.041-33.75 120.03 0 35.029 7.837 68.221 21.844 97.938h137.75l-125.84-217.97zm266.63 22.125 125.84 217.94c21.422-34.943 33.781-76.041 33.781-120.03 0-35.015-7.8481-68.2-21.844-97.906h-137.78zm49.594 109.94-125.81 217.91c1.9418 0.0484 3.8903 0.0625 5.8438 0.0625 78.209 0 147.29-39.036 188.84-98.688l-68.875-119.28zm-322.03 97.906c36.098 66.2 103.76 112.7 182.78 119.25l68.844-119.25h-251.63z" fill-rule="evenodd" fill="#0085ba"/>
	</g>
</svg>
